<?xml version="1.0" standalone="no"?>
<!DOCTYPE svg PUBLIC "-//W3C//DTD SVG 20010904//EN"
 "http://www.w3.org/TR/2001/REC-SVG-20010904/DTD/svg10.dtd">
<svg version="1.0" xmlns="http://www.w3.org/2000/svg"
 width="180.000000pt" height="130.000000pt" viewBox="0 0 180.000000 130.000000"
 preserveAspectRatio="xMidYMid meet">
<metadata>
Created by potrace 1.10, written by Peter Selinger 2001-2011
</metadata>
<g transform="translate(0.000000,130.000000) scale(0.100000,-0.100000)"
fill="#000000" stroke="none">
<path d="M453 1033 c-17 -3 -20 -8 -13 -21 5 -9 23 -46 40 -82 114 -234 340
-407 597 -456 41 -8 122 -14 180 -14 92 0 104 2 99 16 -3 9 -6 21 -6 28 0 9
-30 13 -117 13 -122 1 -190 14 -293 55 -181 73 -340 225 -420 402 -17 36 -34
65 -38 65 -4 -1 -17 -4 -29 -6z"/>
</g>
</svg>
